<svg width="1000" height="300" viewBox="0 0 1000 300" fill="none" xmlns="http://www.w3.org/2000/svg">
<rect width="1000" height="300" fill="#DDDDDD"/>
<path d="M425.818 185H401.068V115.182H426.023C433.045 115.182 439.091 116.58 444.159 119.375C449.227 122.148 453.125 126.136 455.852 131.341C458.602 136.545 459.977 142.773 459.977 150.023C459.977 157.295 458.602 163.545 455.852 168.773C453.125 174 449.205 178.011 444.091 180.807C439 183.602 432.909 185 425.818 185ZM415.83 172.352H425.205C429.568 172.352 433.239 171.58 436.216 170.034C439.216 168.466 441.466 166.045 442.966 162.773C444.489 159.477 445.25 155.227 445.25 150.023C445.25 144.864 444.489 140.648 442.966 137.375C441.466 134.102 439.227 131.693 436.25 130.148C433.273 128.602 429.602 127.83 425.239 127.83H415.83V172.352ZM494.298 186.023C489.003 186.023 484.423 184.898 480.56 182.648C476.719 180.375 473.753 177.216 471.662 173.17C469.571 169.102 468.526 164.386 468.526 159.023C468.526 153.614 469.571 148.886 471.662 144.841C473.753 140.773 476.719 137.614 480.56 135.364C484.423 133.091 489.003 131.955 494.298 131.955C499.594 131.955 504.162 133.091 508.003 135.364C511.866 137.614 514.844 140.773 516.935 144.841C519.026 148.886 520.071 153.614 520.071 159.023C520.071 164.386 519.026 169.102 516.935 173.17C514.844 177.216 511.866 180.375 508.003 182.648C504.162 184.898 499.594 186.023 494.298 186.023ZM494.366 174.773C496.776 174.773 498.787 174.091 500.401 172.727C502.014 171.341 503.23 169.455 504.048 167.068C504.889 164.682 505.31 161.966 505.31 158.92C505.31 155.875 504.889 153.159 504.048 150.773C503.23 148.386 502.014 146.5 500.401 145.114C498.787 143.727 496.776 143.034 494.366 143.034C491.935 143.034 489.889 143.727 488.23 145.114C486.594 146.5 485.355 148.386 484.514 150.773C483.696 153.159 483.287 155.875 483.287 158.92C483.287 161.966 483.696 164.682 484.514 167.068C485.355 169.455 486.594 171.341 488.23 172.727C489.889 174.091 491.935 174.773 494.366 174.773ZM538.531 185L524.281 132.636H538.974L547.088 167.818H547.565L556.02 132.636H570.44L579.031 167.614H579.474L587.452 132.636H602.111L587.895 185H572.52L563.52 152.068H562.872L553.872 185H538.531ZM624.381 154.727V185H609.858V132.636H623.699V141.875H624.312C625.472 138.83 627.415 136.42 630.142 134.648C632.869 132.852 636.176 131.955 640.062 131.955C643.699 131.955 646.869 132.75 649.574 134.341C652.278 135.932 654.381 138.205 655.881 141.159C657.381 144.091 658.131 147.591 658.131 151.659V185H643.608V154.25C643.631 151.045 642.813 148.545 641.153 146.75C639.494 144.932 637.21 144.023 634.301 144.023C632.347 144.023 630.619 144.443 629.119 145.284C627.642 146.125 626.483 147.352 625.642 148.966C624.824 150.557 624.403 152.477 624.381 154.727ZM684.099 115.182V185H669.577V115.182H684.099ZM719.392 186.023C714.097 186.023 709.517 184.898 705.653 182.648C701.813 180.375 698.847 177.216 696.756 173.17C694.665 169.102 693.619 164.386 693.619 159.023C693.619 153.614 694.665 148.886 696.756 144.841C698.847 140.773 701.813 137.614 705.653 135.364C709.517 133.091 714.097 131.955 719.392 131.955C724.688 131.955 729.256 133.091 733.097 135.364C736.96 137.614 739.938 140.773 742.028 144.841C744.119 148.886 745.165 153.614 745.165 159.023C745.165 164.386 744.119 169.102 742.028 173.17C739.938 177.216 736.96 180.375 733.097 182.648C729.256 184.898 724.688 186.023 719.392 186.023ZM719.46 174.773C721.869 174.773 723.881 174.091 725.494 172.727C727.108 171.341 728.324 169.455 729.142 167.068C729.983 164.682 730.403 161.966 730.403 158.92C730.403 155.875 729.983 153.159 729.142 150.773C728.324 148.386 727.108 146.5 725.494 145.114C723.881 143.727 721.869 143.034 719.46 143.034C717.028 143.034 714.983 143.727 713.324 145.114C711.688 146.5 710.449 148.386 709.608 150.773C708.79 153.159 708.381 155.875 708.381 158.92C708.381 161.966 708.79 164.682 709.608 167.068C710.449 169.455 711.688 171.341 713.324 172.727C714.983 174.091 717.028 174.773 719.46 174.773ZM769.54 185.989C766.199 185.989 763.222 185.409 760.608 184.25C757.994 183.068 755.926 181.33 754.403 179.034C752.903 176.716 752.153 173.83 752.153 170.375C752.153 167.466 752.688 165.023 753.756 163.045C754.824 161.068 756.278 159.477 758.119 158.273C759.96 157.068 762.051 156.159 764.392 155.545C766.756 154.932 769.233 154.5 771.824 154.25C774.869 153.932 777.324 153.636 779.188 153.364C781.051 153.068 782.403 152.636 783.244 152.068C784.085 151.5 784.506 150.659 784.506 149.545V149.341C784.506 147.182 783.824 145.511 782.46 144.33C781.119 143.148 779.21 142.557 776.733 142.557C774.119 142.557 772.04 143.136 770.494 144.295C768.949 145.432 767.926 146.864 767.426 148.591L753.994 147.5C754.676 144.318 756.017 141.568 758.017 139.25C760.017 136.909 762.597 135.114 765.756 133.864C768.938 132.591 772.619 131.955 776.801 131.955C779.71 131.955 782.494 132.295 785.153 132.977C787.835 133.659 790.21 134.716 792.278 136.148C794.369 137.58 796.017 139.42 797.222 141.67C798.426 143.898 799.028 146.568 799.028 149.682V185H785.256V177.739H784.847C784.006 179.375 782.881 180.818 781.472 182.068C780.062 183.295 778.369 184.261 776.392 184.966C774.415 185.648 772.131 185.989 769.54 185.989ZM773.699 175.966C775.835 175.966 777.722 175.545 779.358 174.705C780.994 173.841 782.278 172.682 783.21 171.227C784.142 169.773 784.608 168.125 784.608 166.284V160.727C784.153 161.023 783.528 161.295 782.733 161.545C781.96 161.773 781.085 161.989 780.108 162.193C779.131 162.375 778.153 162.545 777.176 162.705C776.199 162.841 775.312 162.966 774.517 163.08C772.813 163.33 771.324 163.727 770.051 164.273C768.778 164.818 767.79 165.557 767.085 166.489C766.381 167.398 766.028 168.534 766.028 169.898C766.028 171.875 766.744 173.386 768.176 174.432C769.631 175.455 771.472 175.966 773.699 175.966ZM829.591 185.852C825.614 185.852 822.011 184.83 818.784 182.784C815.58 180.716 813.034 177.682 811.148 173.682C809.284 169.659 808.352 164.727 808.352 158.886C808.352 152.886 809.318 147.898 811.25 143.92C813.182 139.92 815.75 136.932 818.955 134.955C822.182 132.955 825.716 131.955 829.557 131.955C832.489 131.955 834.932 132.455 836.886 133.455C838.864 134.432 840.455 135.659 841.659 137.136C842.886 138.591 843.818 140.023 844.455 141.432H844.898V115.182H859.386V185H845.068V176.614H844.455C843.773 178.068 842.807 179.511 841.557 180.943C840.33 182.352 838.727 183.523 836.75 184.455C834.795 185.386 832.409 185.852 829.591 185.852ZM834.193 174.295C836.534 174.295 838.511 173.659 840.125 172.386C841.761 171.091 843.011 169.284 843.875 166.966C844.761 164.648 845.205 161.932 845.205 158.818C845.205 155.705 844.773 153 843.909 150.705C843.045 148.409 841.795 146.636 840.159 145.386C838.523 144.136 836.534 143.511 834.193 143.511C831.807 143.511 829.795 144.159 828.159 145.455C826.523 146.75 825.284 148.545 824.443 150.841C823.602 153.136 823.182 155.795 823.182 158.818C823.182 161.864 823.602 164.557 824.443 166.898C825.307 169.216 826.545 171.034 828.159 172.352C829.795 173.648 831.807 174.295 834.193 174.295Z" fill="#333333"/>
<path d="M199 220.667C194.142 220.667 189.984 218.938 186.527 215.482C183.065 212.019 181.333 207.858 181.333 203V176.5H199V203H305V176.5H322.667V203C322.667 207.858 320.938 212.019 317.482 215.482C314.019 218.938 309.858 220.667 305 220.667H199ZM252 185.333L207.833 141.167L220.2 128.358L243.167 151.325V79.3335H260.833V151.325L283.8 128.358L296.167 141.167L252 185.333Z" fill="#333333"/>
</svg>
